HIERARCHY
ROOT hip
{
  OFFSET 0 0 0
  CHANNELS 6 Xposition Yposition Zposition Zrotation Yrotation Xrotation
  JOINT abdomen
  {
    OFFSET 0 20.6881 -0.73152
    CHANNELS 3 Zrotation Xrotation Yrotation
    JOINT chest
    {
      OFFSET 0 11.7043 -0.48768
      CHANNELS 3 Zrotation Xrotation Yrotation
      JOINT neck
      {
        OFFSET 0 22.1894 -2.19456
        CHANNELS 3 Zrotation Xrotation Yrotation
        JOINT head
        {
          OFFSET -0.24384 7.07133 1.2192
          CHANNELS 3 Zrotation Xrotation Yrotation
          JOINT leftEye
          {
            OFFSET 4.14528 8.04674 8.04672
            CHANNELS 3 Zrotation Xrotation Yrotation
            End Site
            {
              OFFSET 1 0 0
            }
          }
          JOINT rightEye
          {
            OFFSET -3.6576 8.04674 8.04672
            CHANNELS 3 Zrotation Xrotation Yrotation
            End Site
            {
              OFFSET 1 0 0
            }
          }
        }
      }
      JOINT rCollar
      {
        OFFSET -2.68224 19.2634 -4.8768
        CHANNELS 3 Zrotation Xrotation Yrotation
        JOINT rShldr
        {
          OFFSET -8.77824 -1.95073 1.46304
          CHANNELS 3 Zrotation Xrotation Yrotation
          JOINT rForeArm
          {
            OFFSET -28.1742 -1.7115 0.48768
            CHANNELS 3 Zrotation Xrotation Yrotation
            JOINT rHand
            {
              OFFSET -22.5879 0.773209 7.07136
              CHANNELS 3 Zrotation Xrotation Yrotation
              JOINT rThumb1
              {
                OFFSET -1.2192 -0.487915 3.41376
                CHANNELS 3 Zrotation Xrotation Yrotation
                JOINT rThumb2
                {
                  OFFSET -3.37035 -0.52449 3.41376
                  CHANNELS 3 Zrotation Xrotation Yrotation
                  End Site
                  {
                    OFFSET -1.78271 -1.18214 1.43049
                  }
                }
              }
              JOINT rIndex1
              {
                OFFSET -7.75947 0.938293 5.60832
                CHANNELS 3 Zrotation Xrotation Yrotation
                JOINT rIndex2
                {
                  OFFSET -2.54057 -0.884171 1.56538
                  CHANNELS 3 Zrotation Xrotation Yrotation
                  End Site
                  {
                    OFFSET -1.62519 -0.234802 1.16502
                  }
                }
              }
              JOINT rMid1
              {
                OFFSET -8.24714 1.18213 3.41376
                CHANNELS 3 Zrotation Xrotation Yrotation
                JOINT rMid2
                {
                  OFFSET -3.10165 -0.590103 1.0647
                  CHANNELS 3 Zrotation Xrotation Yrotation
                  End Site
                  {
                    OFFSET -2.48547 -0.328903 0.83742
                  }
                }
              }
              JOINT rRing1
              {
                OFFSET -8.82822 0.546677 1.51678
                CHANNELS 3 Zrotation Xrotation Yrotation
                JOINT rRing2
                {
                  OFFSET -2.60934 -0.819778 -0.0198488
                  CHANNELS 3 Zrotation Xrotation Yrotation
                  End Site
                  {
                    OFFSET -2.33842 -0.294052 0.168128
                  }
                }
              }
              JOINT rPinky1
              {
                OFFSET -8.27202 -0.0477905 -0.4584
                CHANNELS 3 Zrotation Xrotation Yrotation
                JOINT rPinky2
                {
                  OFFSET -1.82734 -0.647385 -0.700984
                  CHANNELS 3 Zrotation Xrotation Yrotation
                  End Site
                  {
                    OFFSET -1.69225 -0.51767 -0.607171
                  }
                }
              }
            }
          }
        }
      }
      JOINT lCollar
      {
        OFFSET 2.68224 19.2634 -4.8768
        CHANNELS 3 Zrotation Xrotation Yrotation
        JOINT lShldr
        {
          OFFSET 8.77824 -1.95073 1.46304
          CHANNELS 3 Zrotation Xrotation Yrotation
          JOINT lForeArm
          {
            OFFSET 28.1742 -1.7115 0.48768
            CHANNELS 3 Zrotation Xrotation Yrotation
            JOINT lHand
            {
              OFFSET 22.5879 0.773209 7.07136
              CHANNELS 3 Zrotation Xrotation Yrotation
              JOINT lThumb1
              {
                OFFSET 1.2192 -0.487915 3.41376
                CHANNELS 3 Zrotation Xrotation Yrotation
                JOINT lThumb2
                {
                  OFFSET 3.37035 -0.52449 3.41376
                  CHANNELS 3 Zrotation Xrotation Yrotation
                  End Site
                  {
                    OFFSET 1.78271 -1.18214 1.43049
                  }
                }
              }
              JOINT lIndex1
              {
                OFFSET 7.75947 0.938293 5.60832
                CHANNELS 3 Zrotation Xrotation Yrotation
                JOINT lIndex2
                {
                  OFFSET 2.54057 -0.884171 1.56538
                  CHANNELS 3 Zrotation Xrotation Yrotation
                  End Site
                  {
                    OFFSET 1.62519 -0.234802 1.16502
                  }
                }
              }
              JOINT lMid1
              {
                OFFSET 8.24714 1.18213 3.41376
                CHANNELS 3 Zrotation Xrotation Yrotation
                JOINT lMid2
                {
                  OFFSET 3.10165 -0.590103 1.0647
                  CHANNELS 3 Zrotation Xrotation Yrotation
                  End Site
                  {
                    OFFSET 2.48547 -0.328903 0.83742
                  }
                }
              }
              JOINT lRing1
              {
                OFFSET 8.82822 0.546677 1.51678
                CHANNELS 3 Zrotation Xrotation Yrotation
                JOINT lRing2
                {
                  OFFSET 2.60934 -0.819778 -0.0198488
                  CHANNELS 3 Zrotation Xrotation Yrotation
                  End Site
                  {
                    OFFSET 2.33842 -0.294052 0.168128
                  }
                }
              }
              JOINT lPinky1
              {
                OFFSET 8.27202 -0.0477905 -0.4584
                CHANNELS 3 Zrotation Xrotation Yrotation
                JOINT lPinky2
                {
                  OFFSET 1.82734 -0.647385 -0.700984
                  CHANNELS 3 Zrotation Xrotation Yrotation
                  End Site
                  {
                    OFFSET 1.69225 -0.51767 -0.607171
                  }
                }
              }
            }
          }
        }
      }
    }
  }
  JOINT rButtock
  {
    OFFSET -8.77824 4.35084 1.2192
    CHANNELS 3 Zrotation Xrotation Yrotation
    JOINT rThigh
    {
      OFFSET 0 -1.70687 -2.19456
      CHANNELS 3 Zrotation Xrotation Yrotation
      JOINT rShin
      {
        OFFSET 0 -36.8199 0.73152
        CHANNELS 3 Zrotation Xrotation Yrotation
        JOINT rFoot
        {
          OFFSET 0.73152 -45.1104 -5.12064
          CHANNELS 3 Zrotation Xrotation Yrotation
          End Site
          {
            OFFSET -1.1221 -3.69964 12.103
          }
        }
      }
    }
  }
  JOINT lButtock
  {
    OFFSET 8.77824 4.35084 1.2192
    CHANNELS 3 Zrotation Xrotation Yrotation
    JOINT lThigh
    {
      OFFSET 0 -1.70687 -2.19456
      CHANNELS 3 Zrotation Xrotation Yrotation
      JOINT lShin
      {
        OFFSET 0 -36.8199 0.73152
        CHANNELS 3 Zrotation Xrotation Yrotation
        JOINT lFoot
        {
          OFFSET -0.73152 -45.1104 -5.12064
          CHANNELS 3 Zrotation Xrotation Yrotation
          End Site
          {
            OFFSET 1.1221 -3.69964 12.103
          }
        }
      }
    }
  }
}
MOTION
Frames:	6
Frame Time:	0.00833333
-11.5291 59.188 -6.46087 165.186 64.9252 184.374 -32.5216 55.7014 31.7061 -0.824494 -10.58 4.97572 -8.16152 -15.6382 -6.59038 6.13096 0.447972 -8.69485 -0.0 0.0 0.0 -0.0 0.0 0.0 2.60804e-13 -4.26213e-13 -4.86525e-13 19.0689 13.1982 76.7152 -21.501 -15.0254 42.4613 -1.30486 -30.5987 -4.76743 4.525e-09 -1.03483e-08 -3.64482e-10 7.80678e-09 -1.77297e-08 -5.09654e-10 4.525e-09 -1.03483e-08 -3.64507e-10 7.73091 5.47488 0.417314 4.525e-09 -1.03483e-08 -3.64488e-10 2.90554 0.965183 0.102902 4.52501e-09 -1.03483e-08 -3.64491e-10 10.2786 0.731801 0.0259123 4.525e-09 -1.03483e-08 -3.64488e-10 2.22167 -0.733487 -0.20892 2.60775e-13 -4.26176e-13 -4.86625e-13 -27.6142 43.9135 -39.0273 25.9502 -23.3076 -56.5602 1.54847 -32.9664 5.22984 2.52489e-09 3.21844e-09 6.65527e-09 4.17617e-09 5.56309e-09 1.15652e-08 2.52489e-09 3.21844e-09 6.65527e-09 -7.73091 5.47488 -0.417314 2.52489e-09 3.21844e-09 6.65528e-09 -2.90554 0.965183 -0.102902 2.52489e-09 3.21844e-09 6.65527e-09 -10.2786 0.731801 -0.0259123 2.5249e-09 3.21844e-09 6.65526e-09 -2.22167 -0.733487 0.20892 -2.03217e-16 0.0 -3.88251e-19 -61.3992 -41.5294 -56.2402 -169.96 84.7466 172.605 -7.14862 -26.878 -14.7446 2.03217e-16 0.0 3.88251e-19 81.122 -70.0862 83.6701 5.23953 80.2131 -5.63833 -3.85405 -2.95262 -15.9139
-12.2401 59.1287 -6.2025 164.618 65.206 185.525 -30.716 52.1115 28.5888 0.835736 -9.81179 4.79333 -8.45676 -15.6007 -6.55925 6.21562 0.338501 -8.46903 -0.0 0.0 0.0 -0.0 0.0 0.0 4.64986e-13 1.76824e-13 -3.2258e-13 18.0498 13.7733 76.7647 -21.722 -15.3461 43.0405 -1.35486 -31.1132 -4.86561 3.17072e-09 -5.64811e-09 1.10583e-09 5.43467e-09 -9.57278e-09 1.99639e-09 3.17072e-09 -5.6481e-09 1.1058e-09 7.73091 5.47488 0.417314 3.17071e-09 -5.6481e-09 1.10582e-09 2.90554 0.965183 0.102902 3.17072e-09 -5.6481e-09 1.10582e-09 10.2786 0.731801 0.0259123 3.17072e-09 -5.6481e-09 1.10582e-09 2.22167 -0.733487 -0.20892 4.64928e-13 1.76863e-13 -3.22683e-13 -28.5697 43.773 -38.2937 25.8703 -23.1064 -56.2314 1.52552 -32.7568 5.18781 1.72209e-09 2.9479e-09 6.43273e-09 2.79996e-09 5.08747e-09 1.11565e-08 1.72209e-09 2.9479e-09 6.43273e-09 -7.73091 5.47488 -0.417314 1.72209e-09 2.9479e-09 6.43274e-09 -2.90554 0.965183 -0.102902 1.72209e-09 2.9479e-09 6.43273e-09 -10.2786 0.731801 -0.0259123 1.7221e-09 2.9479e-09 6.43272e-09 -2.22167 -0.733487 0.20892 -2.03217e-16 0.0 -3.88251e-19 -64.3676 -44.1754 -59.8559 -169.71 84.8712 172.325 -7.03426 -26.3944 -14.6992 2.03217e-16 0.0 3.88251e-19 88.5154 -70.2982 91.465 5.05666 79.9615 -5.50173 -3.64056 -3.13157 -14.7894
-12.3503 59.0561 -6.32304 164.046 66.5023 183.781 -29.2718 46.5284 25.1682 3.36304 -8.68434 4.557 -8.86647 -15.6573 -6.41638 6.18071 0.33906 -7.94352 -0.0 0.0 0.0 -0.0 0.0 0.0 6.36588e-13 1.0432e-12 -2.65377e-14 16.7588 14.4169 77.0626 -21.9444 -15.6759 43.6307 -1.41326 -31.6954 -4.97817 1.14855e-09 8.24118e-10 2.76746e-09 1.90542e-09 1.62235e-09 4.81242e-09 1.14855e-09 8.24129e-10 2.76743e-09 7.73091 5.47488 0.417314 1.14854e-09 8.24125e-10 2.76746e-09 2.90554 0.965183 0.102902 1.14856e-09 8.24125e-10 2.76745e-09 10.2786 0.731801 0.0259123 1.14855e-09 8.24123e-10 2.76746e-09 2.22167 -0.733487 -0.20892 6.36471e-13 1.04325e-12 -2.66744e-14 -29.9606 43.52 -37.2598 25.7835 -22.8915 -55.8808 1.49558 -32.4786 5.13241 4.0566e-10 2.24829e-09 5.44277e-09 5.58797e-10 3.8688e-09 9.40806e-09 4.05655e-10 2.24829e-09 5.44277e-09 -7.73091 5.47488 -0.417314 4.0566e-10 2.24829e-09 5.44278e-09 -2.90554 0.965183 -0.102902 4.05653e-10 2.24829e-09 5.44278e-09 -10.2786 0.731801 -0.0259123 4.0567e-10 2.24829e-09 5.44277e-09 -2.22167 -0.733487 0.20892 -2.03217e-16 0.0 -3.88251e-19 -69.3724 -47.4102 -66.0555 -169.434 85.0118 172.02 -7.07892 -25.7059 -15.0014 2.03217e-16 0.0 3.88251e-19 100.124 -69.9976 103.777 4.81261 79.5973 -5.31236 -3.36356 -3.14792 -13.5995
-10.539 58.5523 -8.75007 163.309 68.2262 178.377 -28.7347 40.7825 22.7682 5.83131 -7.47596 4.35 -9.26423 -15.7401 -6.22153 6.05888 0.397525 -7.31744 -0.0 0.0 0.0 -0.0 0.0 0.0 7.4756e-13 1.83761e-12 2.72486e-13 15.5284 15.0442 77.4223 -22.1492 -15.9846 44.1866 -1.46573 -32.1987 -5.07694 -7.42832e-10 6.74317e-09 4.156e-09 -1.3916e-09 1.18493e-08 7.15922e-09 -7.4283e-10 6.74319e-09 4.15596e-09 7.73091 5.47488 0.417314 -7.42836e-10 6.74318e-09 4.15599e-09 2.90554 0.965183 0.102902 -7.42821e-10 6.74318e-09 4.15599e-09 10.2786 0.731801 0.0259123 -7.42826e-10 6.74318e-09 4.156e-09 2.22167 -0.733487 -0.20892 7.47381e-13 1.83767e-12 2.7231e-13 -31.3924 43.2396 -36.185 25.6965 -22.6797 -55.5382 1.46685 -32.2059 5.07857 -8.66072e-10 1.49216e-09 4.32219e-09 -1.60217e-09 2.55412e-09 7.43581e-09 -8.66079e-10 1.49217e-09 4.32219e-09 -7.73091 5.47488 -0.417314 -8.66072e-10 1.49217e-09 4.3222e-09 -2.90554 0.965183 -0.102902 -8.66081e-10 1.49217e-09 4.32219e-09 -10.2786 0.731801 -0.0259123 -8.66062e-10 1.49217e-09 4.32219e-09 -2.22167 -0.733487 0.20892 -2.03217e-16 0.0 -3.88251e-19 -75.1981 -50.0563 -73.0557 -169.11 85.1673 171.665 -7.09683 -25.0218 -15.2677 2.03217e-16 0.0 3.88251e-19 110.324 -68.6417 114.679 4.61165 79.2938 -5.16756 -3.10325 -3.18585 -12.4433
-11.3288 58.0957 -4.8198 162.015 70.0777 194.771 -28.6852 36.8607 21.7088 7.3039 -6.46595 4.25236 -9.52445 -15.7812 -6.03466 5.88427 0.461582 -6.78993 -0.0 0.0 0.0 -0.0 0.0 0.0 7.69855e-13 2.22476e-12 4.45377e-13 14.7003 15.5876 77.6371 -22.3196 -16.2447 44.662 -1.49565 -32.4764 -5.13214 -1.70475e-09 9.78389e-09 4.807e-09 -3.06701e-09 1.71016e-08 8.25754e-09 -1.70474e-09 9.78391e-09 4.80697e-09 7.73091 5.47488 0.417314 -1.70475e-09 9.7839e-09 4.807e-09 2.90554 0.965183 0.102902 -1.70473e-09 9.7839e-09 4.807e-09 10.2786 0.731801 0.0259123 -1.70474e-09 9.78389e-09 4.80701e-09 2.22167 -0.733487 -0.20892 7.69634e-13 2.22483e-12 4.45178e-13 -32.487 43.0321 -35.3181 25.6171 -22.4893 -55.2325 1.4469 -32.0132 5.04077 -1.53477e-09 1.0521e-09 3.70778e-09 -2.73781e-09 1.79043e-09 6.3557e-09 -1.53477e-09 1.0521e-09 3.70778e-09 -7.73091 5.47488 -0.417314 -1.53477e-09 1.0521e-09 3.70778e-09 -2.90554 0.965183 -0.102902 -1.53478e-09 1.0521e-09 3.70778e-09 -10.2786 0.731801 -0.0259123 -1.53476e-09 1.0521e-09 3.70777e-09 -2.22167 -0.733487 0.20892 -2.03217e-16 0.0 -3.88251e-19 -79.5076 -51.8505 -77.9281 -168.717 85.3361 171.234 -6.92323 -24.5488 -15.1215 2.03217e-16 0.0 3.88251e-19 114.705 -67.0329 119.399 4.53978 79.2248 -5.1464 -2.92534 -3.43341 -11.4191
-11.4037 57.5471 -5.03401 160.479 72.5508 195.049 -28.569 35.5818 21.7733 7.28523 -5.69226 4.29667 -9.60284 -15.735 -5.87232 5.66233 0.502832 -6.4256 -0.0 0.0 0.0 -0.0 0.0 0.0 6.58909e-13 2.01087e-12 4.30505e-13 14.4415 16.0196 77.6014 -22.4539 -16.4528 45.0398 -1.48861 -32.4093 -5.11889 -1.18251e-09 8.45965e-09 4.41454e-09 -2.15673e-09 1.4817e-08 7.59446e-09 -1.18251e-09 8.45967e-09 4.41451e-09 7.73091 5.47488 0.417314 -1.18252e-09 8.45966e-09 4.41454e-09 2.90554 0.965183 0.102902 -1.1825e-09 8.45966e-09 4.41454e-09 10.2786 0.731801 0.0259123 -1.18251e-09 8.45965e-09 4.41456e-09 2.22167 -0.733487 -0.20892 6.58676e-13 2.01094e-12 4.30313e-13 -33.0833 42.9644 -34.7523 25.5533 -22.3381 -54.9913 1.44162 -31.9609 5.0306 -1.26263e-09 1.17031e-09 4.08862e-09 -2.27897e-09 1.99908e-09 7.0227e-09 -1.26264e-09 1.17031e-09 4.08863e-09 -7.73091 5.47488 -0.417314 -1.26263e-09 1.17031e-09 4.08863e-09 -2.90554 0.965183 -0.102902 -1.26264e-09 1.17031e-09 4.08862e-09 -10.2786 0.731801 -0.0259123 -1.26262e-09 1.17031e-09 4.08862e-09 -2.22167 -0.733487 0.20892 -2.03217e-16 0.0 -3.88251e-19 -80.7268 -53.3209 -78.7615 -168.204 85.5305 170.671 -6.48981 -24.3708 -14.3912 2.03217e-16 0.0 3.88251e-19 112.873 -65.8472 117.432 4.64484 79.4829 -5.29515 -2.84413 -3.98796 -10.5344
